{
    "asset" : {
        "generator" : "Khronos glTF Blender I/O v1.1.45",
        "version" : "2.0"
    },
    "extensionsRequired": ["EXT_texture_webp"],
    "extensionsUsed": ["EXT_texture_webp"],
    "scene" : 0,
    "scenes" : [
        {
            "name" : "Scene",
            "nodes" : [
                0
            ]
        }
    ],
    "nodes" : [
        {
            "mesh" : 0,
            "name" : "Cube",
            "scale" : [
                0.1607210636138916,
                0.1607210636138916,
                0.1607210636138916
            ]
        }
    ],
    "materials" : [
        {
            "doubleSided" : true,
            "emissiveFactor" : [
                0,
                0,
                0
            ],
            "name" : "Material",
            "normalTexture" : {
                "index" : 0,
                "texCoord" : 0
            },
            "pbrMetallicRoughness" : {
                "baseColorTexture" : {
                    "index" : 1,
                    "texCoord" : 0
                },
                "metallicRoughnessTexture" : {
                    "index" : 2,
                    "texCoord" : 0
                }
            }
        }
    ],
    "meshes" : [
        {
            "name" : "Cube",
            "primitives" : [
                {
                    "attributes" : {
                        "POSITION" : 0,
                        "NORMAL" : 1,
                        "TEXCOORD_0" : 2
                    },
                    "indices" : 3,
                    "material" : 0
                }
            ]
        }
    ],
    "textures" : [
        {
            "source" : 0,
            "extensions": {
                "EXT_texture_webp": {
                    "source": 3
                }
            }
        },
        {
            "source" : 1,
            "extensions": {
                "EXT_texture_webp": {
                    "source": 4
                }
            }
        },
        {
            "source" : 2,
            "extensions": {
                "EXT_texture_webp": {
                    "source": 5
                }
            }
        }
    ],
    "images" : [
        {
            "mimeType" : "image/png",
            "name" : "webp_DefaultMaterial_Normal",
            "uri" : "webp_DefaultMaterial_Normal.png"
        },
        {
            "mimeType" : "image/png",
            "name" : "webp_DefaultMaterial_BaseColor",
            "uri" : "webp_DefaultMaterial_BaseColor.png"
        },
        {
            "mimeType" : "image/png",
            "name" : "webp_DefaultMaterial_Metallic-webp_DefaultMaterial_Roughness",
            "uri" : "webp_DefaultMaterial_Metallic-webp_DefaultMaterial_Roughness.png"
        },
        {
            "mimeType" : "image/webp",
            "name" : "webp_DefaultMaterial_Normal",
            "uri" : "webp_DefaultMaterial_Normal.webp"
        },
        {
            "mimeType" : "image/webp",
            "name" : "webp_DefaultMaterial_BaseColor",
            "uri" : "webp_DefaultMaterial_BaseColor.webp"
        },
        {
            "mimeType" : "image/webp",
            "name" : "webp_DefaultMaterial_Metallic-webp_DefaultMaterial_Roughness",
            "uri" : "webp_DefaultMaterial_Metallic-webp_DefaultMaterial_Roughness.webp"
        }
    ],
    "accessors" : [
        {
            "bufferView" : 0,
            "componentType" : 5126,
            "count" : 10584,
            "max" : [
                100,
                100,
                100
            ],
            "min" : [
                -100,
                -100,
                -100
            ],
            "type" : "VEC3"
        },
        {
            "bufferView" : 1,
            "componentType" : 5126,
            "count" : 10584,
            "type" : "VEC3"
        },
        {
            "bufferView" : 2,
            "componentType" : 5126,
            "count" : 10584,
            "type" : "VEC2"
        },
        {
            "bufferView" : 3,
            "componentType" : 5123,
            "count" : 15876,
            "type" : "SCALAR"
        }
    ],
    "bufferViews" : [
        {
            "buffer" : 0,
            "byteLength" : 127008,
            "byteOffset" : 0
        },
        {
            "buffer" : 0,
            "byteLength" : 127008,
            "byteOffset" : 127008
        },
        {
            "buffer" : 0,
            "byteLength" : 84672,
            "byteOffset" : 254016
        },
        {
            "buffer" : 0,
            "byteLength" : 31752,
            "byteOffset" : 338688
        }
    ],
    "buffers" : [
        {
            "byteLength" : 370440,
            "uri" : "webp.bin"
        }
    ]
}
